<?xml version="1.0" standalone="no"?>
<!DOCTYPE svg PUBLIC "-//W3C//DTD SVG 20010904//EN"
 "http://www.w3.org/TR/2001/REC-SVG-20010904/DTD/svg10.dtd">
<svg version="1.0" xmlns="http://www.w3.org/2000/svg"
 width="2112.000000pt" height="2112.000000pt" viewBox="0 0 2112.000000 2112.000000"
 preserveAspectRatio="xMidYMid meet">
<metadata>
Created by potrace 1.11, written by Peter Selinger 2001-2013
</metadata>
<g transform="translate(0.000000,2112.000000) scale(0.100000,-0.100000)"
fill="#000000" stroke="none">
<path d="M0 12161 l0 -959 43 -1 c23 -1 48 -2 55 -2 6 0 28 0 47 0 19 0 43 0
53 1 9 0 31 0 47 -1 17 0 37 0 45 0 8 1 29 1 45 0 17 0 35 0 40 0 6 0 24 0 40
0 17 1 37 1 45 0 8 0 29 0 45 0 17 1 37 0 45 0 8 0 49 0 90 0 41 0 83 0 93 0
49 0 89 0 105 1 9 0 31 0 47 -1 17 0 39 0 50 1 11 1 26 1 33 1 18 0 80 0 95 0
6 0 29 -1 50 -3 20 -3 37 -1 37 2 0 4 17 4 38 1 20 -4 49 -6 65 -5 26 3 27 1
28 -49 1 -29 1 -56 -1 -62 -1 -5 -1 -21 -1 -35 2 -47 2 -55 2 -85 -1 -16 0
-37 0 -45 0 -8 0 -35 0 -60 0 -25 -1 -52 0 -60 0 -8 0 -28 0 -45 -1 -16 -1
-37 0 -45 0 -13 0 -37 -1 -115 0 -11 0 -33 1 -50 0 -16 0 -39 -1 -50 -1 -11
-1 -24 -1 -30 0 -5 0 -28 0 -50 0 -22 1 -49 1 -60 0 -11 0 -33 -1 -50 0 -16 0
-39 1 -50 1 -11 1 -27 1 -35 -1 -8 -1 -33 0 -55 0 -22 0 -47 0 -55 -1 -8 -1
-28 0 -45 1 -16 1 -36 0 -42 -2 -26 -2 -39 -2 -83 1 -69 1 -83 0 -115 0 -16 0
-36 0 -42 1 -17 1 -60 0 -75 -1 -25 1 -174 2 -198 0 -14 0 -32 0 -40 0 -8 -1
-60 0 -115 0 -55 0 -107 -1 -115 0 -8 0 -28 1 -45 0 -16 0 -37 0 -45 0 -8 -1
-60 0 -115 0 -55 0 -107 -1 -115 0 -8 0 -28 1 -45 0 -16 0 -37 0 -45 0 -8 -1
-60 0 -115 0 -55 0 -107 -1 -115 0 -8 0 -28 1 -45 0 -16 0 -36 0 -42 -1 -20
-1 -271 0 -285 0 -7 0 -44 -1 -83 -1 -38 -1 -87 -1 -107 l1 -38 960 0 c907 0
960 1 961 18 1 9 1 21 -1 27 -1 5 -1 21 -1 35 2 37 2 54 2 148 0 9 0 44 0 77
0 33 0 69 -1 80 -1 11 -1 25 -1 30 3 228 3 337 -1 341 -3 2 -2 23 2 44 4 22 4
42 0 45 -4 2 -4 25 0 50 4 25 4 48 0 50 -5 3 -4 20 0 39 4 19 4 39 0 46 -4 6
-4 29 0 51 4 22 4 41 0 44 -4 3 -4 22 0 43 3 21 4 46 0 57 -3 10 -3 38 0 62 4
23 4 43 0 43 -4 0 -4 20 0 45 4 25 4 48 0 50 -5 3 -4 20 0 39 4 19 5 37 3 40
-3 3 -5 40 -4 83 1 43 1 89 1 103 -1 14 -1 32 -1 40 0 8 1 60 0 115 0 55 0
107 1 115 0 8 0 29 -1 45 0 17 0 37 0 45 2 76 2 247 1 255 -1 6 -2 15 -1 20 5
22 2 147 -2 152 -3 2 -2 17 2 31 5 15 5 36 1 47 -4 11 -4 29 0 39 4 11 4 36 0
57 -4 21 -4 43 0 49 4 7 4 27 0 45 -4 18 -4 38 0 45 4 6 4 29 0 51 -4 22 -4
41 0 44 4 3 4 23 0 45 -4 22 -4 42 0 45 4 3 4 23 0 45 -4 21 -5 42 -2 45 3 3
5 24 3 48 -3 66 -2 79 3 85 3 3 27 4 53 3 27 -2 55 -2 63 -2 8 1 35 1 60 0 25
0 89 -1 143 -2 53 -1 97 2 97 6 0 5 4 5 10 2 8 -5 58 -6 240 -4 8 0 33 0 55 0
22 0 47 0 55 0 8 0 29 0 45 0 17 -1 37 -1 45 0 8 0 45 -1 83 -2 37 -1 70 0 72
3 3 3 23 2 45 -2 21 -4 44 -4 50 0 7 4 27 4 46 0 19 -4 34 -5 34 -1 0 4 18 5
40 3 29 -3 40 0 41 9 3 93 3 219 -1 219 -3 0 -4 33 -2 72 2 40 2 87 2 103 -1
17 -2 37 -1 45 0 8 1 60 0 115 0 55 0 107 1 115 0 8 0 29 -1 45 0 17 0 37 0
45 3 128 2 251 -3 259 -4 5 -2 12 3 15 4 3 5 23 1 44 -3 21 -4 47 0 58 4 10 4
31 -1 46 -4 14 -5 29 -2 31 6 7 7 126 1 132 -3 3 -2 25 2 50 4 25 3 45 -2 45
-5 0 -7 4 -4 8 5 9 7 56 6 142 -1 30 -1 57 0 60 4 18 4 190 0 190 -4 0 -4 16
-2 35 l4 35 -2241 0 -2241 0 0 -959z"/>
<path d="M5115 13070 c0 -27 3 -50 6 -50 3 0 3 -20 -1 -45 -4 -25 -4 -45 0
-45 4 0 4 -20 0 -45 -4 -25 -4 -45 0 -45 4 0 4 -20 0 -43 -3 -24 -3 -52 0 -63
4 -10 4 -30 0 -44 -4 -14 -4 -34 0 -45 4 -11 4 -33 0 -50 -4 -16 -4 -41 0 -55
4 -14 4 -34 0 -45 -4 -11 -4 -31 0 -45 4 -14 4 -34 0 -45 -4 -11 -4 -33 0 -50
3 -16 3 -41 0 -55 -4 -14 -4 -34 0 -45 4 -11 4 -31 0 -45 -4 -14 -4 -34 0 -45
4 -11 4 -29 0 -39 -3 -11 -4 -37 0 -57 4 -21 4 -43 0 -49 -4 -7 -4 -27 0 -45
4 -18 4 -38 0 -45 -4 -6 -4 -28 0 -48 3 -21 3 -48 0 -62 -4 -14 -4 -34 0 -45
4 -11 4 -31 0 -45 -4 -14 -4 -34 0 -45 4 -11 4 -33 0 -50 -4 -16 -4 -41 0 -55
4 -14 4 -34 0 -45 -4 -11 -4 -31 0 -45 4 -14 4 -34 0 -45 -4 -11 -4 -33 0 -50
3 -16 3 -41 0 -55 -4 -14 -4 -34 0 -45 4 -11 4 -31 0 -45 -4 -14 -4 -34 0 -45
4 -11 4 -29 0 -39 -3 -11 -4 -37 0 -57 4 -21 4 -43 0 -49 -4 -7 -4 -27 0 -45
4 -18 4 -38 0 -45 -4 -6 -4 -28 0 -48 3 -21 3 -48 0 -62 -4 -14 -4 -34 0 -45
4 -11 4 -31 0 -45 -4 -14 -4 -34 0 -45 4 -11 4 -33 0 -50 -4 -16 -4 -41 0 -55
4 -14 4 -34 0 -45 -4 -11 -4 -31 0 -45 4 -14 4 -34 0 -45 -4 -11 -4 -33 0 -50
3 -16 3 -41 0 -55 -4 -14 -4 -34 0 -45 4 -11 4 -31 0 -45 -4 -14 -4 -34 0 -45
4 -11 4 -29 0 -39 -3 -11 -4 -37 0 -57 4 -21 4 -43 0 -49 -4 -7 -4 -27 0 -45
4 -18 4 -38 0 -45 -4 -6 -4 -28 0 -48 3 -21 3 -48 0 -62 -4 -14 -4 -34 0 -45
4 -11 4 -31 0 -45 -4 -14 -4 -34 0 -45 4 -11 4 -33 0 -50 -4 -16 -4 -41 0 -55
4 -14 4 -34 0 -45 -4 -11 -4 -31 0 -45 4 -14 4 -34 0 -45 -4 -11 -4 -33 0 -50
3 -16 3 -41 0 -55 -4 -14 -4 -34 0 -45 4 -11 4 -31 0 -45 -4 -14 -4 -34 0 -45
4 -11 4 -29 0 -39 -3 -11 -4 -37 0 -57 4 -21 4 -43 0 -49 -4 -7 -4 -27 0 -45
4 -18 4 -38 0 -45 -4 -6 -4 -28 0 -48 3 -21 3 -48 0 -62 -4 -14 -4 -34 0 -45
4 -11 4 -31 0 -45 -4 -14 -4 -34 0 -45 4 -11 4 -33 0 -50 -4 -16 -4 -41 0 -55
4 -14 4 -34 0 -45 -4 -11 -4 -31 0 -45 4 -14 4 -34 0 -45 -4 -11 -4 -33 0 -50
3 -16 3 -41 0 -55 -4 -14 -4 -34 0 -45 4 -11 4 -31 0 -45 -4 -14 -4 -34 0 -45
4 -11 4 -29 0 -39 -3 -11 -4 -37 0 -57 4 -21 4 -43 0 -49 -4 -7 -4 -27 0 -45
4 -18 4 -38 0 -44 -4 -7 -4 -29 -1 -49 l6 -37 958 -3 957 -2 1 22 c1 13 0 27
-1 33 -1 5 -2 17 -1 25 0 50 1 147 0 160 0 8 0 43 1 77 1 34 -1 67 -4 72 -4 5
-2 12 3 15 4 3 5 23 1 44 -3 21 -4 47 0 58 4 10 4 31 -1 46 -4 14 -5 29 -2 32
3 2 4 33 4 68 -2 92 -1 130 5 139 2 4 0 10 -6 14 -6 4 -8 10 -5 15 5 8 6 41 5
140 -1 30 -1 60 0 65 4 26 -1 178 -6 186 -3 5 -2 9 3 9 4 0 7 24 6 52 -2 49
-3 87 -3 131 1 9 1 33 1 52 0 19 0 41 0 48 0 40 -1 166 -2 187 0 14 0 32 0 40
0 8 1 60 0 115 0 55 0 107 1 115 0 8 0 29 -1 45 0 17 0 37 0 45 2 76 2 247 1
255 -1 6 -2 15 -1 20 5 22 2 147 -2 152 -3 2 -2 17 2 31 5 15 5 36 1 47 -4 11
-4 29 0 39 4 11 4 36 0 57 -4 21 -4 43 0 49 4 7 4 27 0 45 -4 18 -4 38 0 45 4
6 4 29 0 51 -4 22 -4 41 0 44 4 3 4 23 0 45 -4 22 -4 42 0 45 4 3 4 23 0 45
-4 21 -5 42 -2 45 3 3 5 24 3 48 -3 66 -2 79 3 85 3 3 27 4 53 3 27 -2 54 -2
61 -2 6 1 18 1 25 2 6 0 50 0 97 -1 47 -1 90 -1 95 0 6 1 13 2 17 1 4 0 38 -3
75 -5 89 -6 152 -16 183 -29 14 -6 27 -11 30 -12 114 -30 253 -118 375 -237
250 -243 689 -689 723 -734 44 -59 114 -190 136 -254 33 -97 49 -218 47 -345
-1 -22 -1 -53 0 -70 0 -16 0 -37 0 -45 0 -8 -1 -60 0 -115 0 -55 0 -107 -1
-115 0 -8 0 -28 1 -45 0 -16 0 -37 0 -45 0 -8 -1 -60 0 -115 0 -55 0 -107 -1
-115 0 -8 0 -28 1 -45 0 -16 0 -37 0 -45 0 -8 -1 -60 0 -115 0 -55 0 -107 -1
-115 0 -8 0 -28 1 -45 0 -16 0 -37 0 -45 -3 -128 -1 -302 4 -310 3 -5 2 -10
-3 -10 -5 0 -6 -20 -2 -45 4 -24 4 -49 0 -55 -4 -6 -4 -28 -1 -48 l6 -37 958
-3 957 -2 1 22 c1 13 0 27 -1 33 -1 5 -2 17 -1 25 2 178 2 287 0 325 0 17 -1
37 0 45 0 8 1 60 0 115 0 55 0 107 1 115 0 8 0 29 -1 45 0 17 0 37 0 45 2 76
2 247 1 255 -1 6 -2 15 -1 20 5 22 2 147 -2 152 -3 2 -2 17 2 31 5 15 5 36 1
47 -4 11 -4 31 0 45 4 14 4 39 0 55 -4 17 -4 39 0 50 4 11 4 31 0 45 -4 14 -4
34 0 44 4 11 4 34 0 50 -3 17 -3 50 0 74 4 23 4 42 0 42 -4 0 -4 20 0 45 4 25
4 45 0 45 -4 0 -4 20 0 45 4 24 4 49 0 56 -4 6 -4 26 0 44 4 18 4 39 0 45 -4
7 -5 24 -1 39 4 14 5 37 1 51 -4 14 -3 37 1 52 4 14 5 29 3 31 -3 2 -7 51 -9
108 -2 57 -9 129 -15 159 -6 30 -13 64 -15 75 -8 46 -36 151 -44 170 -5 11
-19 46 -30 78 -23 65 -74 169 -102 208 -10 14 -16 29 -12 33 3 3 2 6 -3 6 -5
0 -18 15 -29 33 -46 79 -182 220 -942 978 -689 688 -899 889 -927 889 -3 0
-22 12 -43 26 -52 36 -162 90 -231 115 -31 11 -66 24 -77 29 -21 10 -127 39
-160 44 -19 3 -50 9 -120 23 -16 4 -700 8 -1520 10 l-1490 4 0 -51z"/>
<path d="M11518 13098 c-2 -13 -1 -37 3 -54 3 -18 3 -37 -1 -44 -4 -7 -4 -26
0 -44 4 -17 4 -40 0 -51 -4 -11 -4 -31 0 -45 4 -14 4 -34 0 -44 -3 -11 -3 -39
0 -63 4 -23 4 -43 0 -43 -4 0 -4 -20 0 -45 4 -24 4 -49 0 -55 -4 -6 -4 -31 0
-55 4 -25 4 -45 1 -45 -5 0 -6 -93 -2 -335 1 -27 1 -65 1 -84 1 -18 1 -36 2
-40 0 -3 0 -8 -1 -11 -5 -14 -5 -120 0 -120 3 0 3 -20 -1 -45 -4 -25 -4 -45 0
-45 4 0 4 -20 0 -45 -4 -24 -4 -49 0 -55 4 -6 4 -31 0 -55 -4 -25 -4 -45 0
-45 4 0 4 -20 0 -45 -4 -25 -4 -48 0 -50 5 -3 4 -20 0 -39 -4 -19 -4 -39 0
-46 4 -6 4 -29 0 -51 -4 -22 -4 -41 0 -44 4 -3 4 -22 0 -43 -3 -21 -4 -46 0
-57 3 -10 3 -38 0 -62 -4 -23 -4 -43 0 -43 4 0 4 -20 0 -45 -4 -25 -4 -48 0
-50 5 -3 4 -20 0 -39 -4 -19 -5 -39 -1 -44 3 -6 4 -45 1 -86 -3 -42 -2 -84 1
-93 3 -9 3 -31 -1 -47 -3 -17 -3 -50 0 -73 4 -24 4 -43 0 -43 -4 0 -4 -19 -1
-42 4 -24 4 -56 1 -73 -4 -16 -3 -41 0 -55 4 -14 4 -34 0 -45 -4 -11 -4 -31 0
-45 3 -14 4 -36 0 -50 -4 -14 -3 -36 0 -50 4 -14 4 -34 0 -45 -4 -11 -4 -31 0
-45 4 -14 4 -34 0 -45 -4 -11 -4 -31 0 -45 3 -14 3 -38 0 -55 -3 -16 -3 -41 0
-55 4 -14 4 -34 0 -45 -4 -11 -4 -31 0 -45 4 -14 4 -34 0 -45 -4 -11 -4 -34 0
-51 4 -18 4 -37 0 -44 -4 -7 -4 -27 0 -45 4 -18 4 -38 0 -45 -4 -7 -4 -27 0
-45 4 -18 4 -38 0 -45 -4 -6 -4 -29 0 -50 4 -22 5 -42 2 -44 -7 -7 -8 -116 -1
-116 3 0 3 -20 -1 -45 -4 -25 -4 -45 0 -45 4 0 4 -20 0 -45 -4 -24 -4 -49 0
-55 4 -6 4 -31 0 -55 -4 -25 -4 -45 0 -45 4 0 4 -20 0 -45 -4 -25 -4 -48 0
-50 5 -3 4 -20 0 -39 -4 -19 -4 -39 0 -46 4 -6 4 -29 0 -51 -4 -22 -4 -41 0
-44 4 -3 4 -22 0 -43 -3 -21 -4 -46 0 -57 3 -10 3 -38 0 -62 -4 -23 -4 -43 0
-43 4 0 4 -20 0 -45 -4 -25 -4 -48 0 -50 5 -3 4 -20 0 -39 -4 -19 -5 -37 -3
-40 3 -3 4 -38 4 -78 -1 -40 -1 -86 0 -103 0 -16 1 -34 0 -40 0 -5 -2 -52 -3
-103 l-3 -92 1455 1 c1550 0 1533 0 1725 49 44 11 87 22 96 24 9 3 38 13 65
24 52 21 86 34 94 37 73 19 391 239 432 299 7 10 585 591 621 624 12 11 85 83
162 161 76 77 142 141 146 141 4 0 9 -16 11 -35 2 -19 2 -35 -2 -35 -3 0 -4
-24 -3 -52 2 -48 3 -140 2 -178 0 -35 1 -167 2 -190 0 -14 0 -32 0 -40 0 -8
-1 -80 0 -160 0 -80 0 -152 -1 -160 0 -8 0 -28 1 -45 1 -16 1 -36 0 -42 -2
-26 -2 -39 -2 -83 1 -69 1 -83 0 -115 0 -16 0 -36 0 -42 1 -19 1 -61 0 -75 0
-7 1 -35 2 -61 l2 -48 1001 4 c550 2 1015 6 1031 10 26 5 84 14 130 21 8 1 18
5 21 9 4 4 16 7 27 7 28 0 188 55 270 94 159 74 306 177 417 291 33 33 381
382 775 775 705 703 822 827 898 949 72 115 177 369 177 428 0 11 3 23 7 27 4
3 8 13 9 21 7 47 16 104 21 130 4 17 8 553 10 1193 l4 1162 -960 0 -960 0 -3
-22 c-2 -13 -1 -37 3 -54 3 -18 3 -37 -1 -44 -4 -7 -4 -26 0 -44 4 -17 4 -40
0 -51 -4 -11 -4 -31 0 -45 4 -14 4 -34 0 -44 -3 -11 -3 -39 0 -63 4 -23 4 -43
0 -43 -4 0 -4 -20 0 -45 4 -24 4 -49 0 -55 -4 -6 -4 -31 0 -55 4 -25 4 -45 1
-45 -3 0 -5 -64 -4 -142 1 -79 2 -172 2 -208 0 -36 1 -74 1 -85 1 -11 1 -27 1
-35 -2 -68 0 -113 4 -120 3 -5 1 -11 -4 -14 -4 -3 -5 -24 -1 -46 4 -21 5 -42
2 -45 -7 -6 -4 -174 3 -185 3 -5 1 -11 -3 -14 -5 -3 -6 -26 -2 -51 4 -25 4
-45 0 -45 -4 0 -4 -20 0 -45 4 -25 4 -45 1 -45 -3 0 -6 -17 -7 -38 -1 -32 -4
-55 -17 -134 -2 -10 -6 -21 -10 -24 -4 -4 -7 -14 -7 -23 0 -25 -83 -189 -128
-254 -37 -54 -146 -170 -339 -359 -43 -42 -85 -85 -94 -95 -9 -10 -63 -64
-120 -120 -57 -56 -111 -110 -120 -120 -9 -10 -27 -28 -40 -40 -13 -12 -42
-40 -64 -63 -139 -145 -329 -231 -517 -234 -27 -1 -48 -4 -48 -7 0 -3 -20 -3
-45 1 -25 4 -45 4 -45 0 0 -4 -20 -4 -45 0 -25 4 -48 3 -51 -2 -3 -4 -10 -6
-15 -3 -5 4 -96 6 -202 5 -105 0 -203 0 -217 1 -14 0 -32 0 -40 0 -42 -2 -155
0 -157 3 -4 3 21 35 57 75 27 29 138 198 145 220 3 11 11 21 17 21 6 0 9 3 5
6 -3 3 7 31 23 63 16 31 29 59 29 64 0 4 7 20 14 35 17 33 52 131 67 192 12
46 15 59 26 120 4 19 8 44 11 55 3 19 15 178 14 200 0 6 0 30 0 55 0 25 -1 56
-2 70 0 14 -1 30 0 35 0 6 0 39 0 75 1 109 2 133 7 141 2 4 0 10 -6 14 -6 4
-8 10 -5 15 5 8 6 41 5 140 -1 30 -1 60 0 65 4 26 -1 178 -6 186 -3 5 -2 9 3
9 4 0 7 24 6 52 -2 49 -3 87 -3 131 1 9 1 33 1 52 0 19 0 41 0 48 0 40 -1 166
-2 187 0 14 0 32 0 40 0 8 1 60 0 115 0 55 0 107 1 115 0 8 0 29 -1 45 0 17 0
37 0 45 1 16 1 267 0 285 0 6 1 42 1 80 1 39 1 87 1 108 l-1 37 -960 0 -960 0
-1 -22 c-1 -13 0 -27 1 -33 1 -5 2 -23 1 -40 -5 -120 -5 -145 0 -145 3 0 3
-20 -1 -45 -4 -25 -4 -45 0 -45 4 0 4 -20 0 -45 -4 -24 -4 -49 0 -55 4 -6 4
-31 0 -55 -4 -25 -4 -45 0 -45 4 0 4 -20 0 -45 -4 -25 -4 -48 0 -50 5 -3 4
-20 0 -39 -4 -19 -4 -39 0 -46 4 -6 4 -29 0 -51 -4 -22 -3 -42 1 -45 5 -3 7
-9 4 -14 -5 -9 -7 -49 -4 -143 1 -31 0 -60 -3 -62 -3 -3 -2 -25 2 -50 4 -25 4
-45 0 -45 -4 0 -4 -20 0 -45 4 -25 4 -48 0 -50 -4 -3 -4 -23 0 -45 4 -21 5
-42 2 -45 -7 -6 -4 -174 3 -185 3 -5 1 -11 -3 -14 -5 -3 -6 -26 -2 -51 4 -25
4 -45 0 -45 -4 0 -4 -20 0 -45 4 -25 4 -45 1 -45 -3 0 -6 -17 -7 -38 -1 -32
-4 -55 -17 -134 -2 -10 -6 -21 -10 -24 -4 -4 -7 -14 -7 -23 0 -25 -83 -189
-128 -254 -37 -54 -146 -170 -339 -359 -43 -42 -85 -85 -94 -95 -9 -10 -63
-64 -120 -120 -57 -56 -111 -110 -120 -120 -9 -10 -27 -28 -40 -40 -13 -12
-42 -40 -64 -63 -139 -145 -329 -231 -517 -234 -27 -1 -48 -4 -48 -7 0 -3 -19
-3 -42 0 -24 4 -60 4 -81 0 -21 -3 -40 -3 -42 1 -3 4 -22 4 -42 1 -21 -4 -52
-4 -70 0 -17 3 -36 3 -43 -1 -6 -4 -28 -4 -48 -1 -33 6 -37 10 -38 37 0 16 -3
34 -6 39 -3 6 -2 19 2 30 4 11 4 32 0 46 -4 15 -5 32 -1 38 4 7 5 32 1 56 -4
25 -4 45 0 45 4 0 4 20 0 45 -4 25 -5 47 -2 50 7 7 4 174 -4 186 -3 5 -2 9 3
9 8 0 8 112 0 134 -2 6 -1 20 3 31 4 11 4 31 0 45 -3 14 -4 36 0 50 3 14 3 39
0 55 -4 17 -4 39 0 50 4 10 3 36 0 57 -4 21 -4 40 0 43 4 3 4 22 0 43 -3 21
-4 47 0 58 4 10 4 31 -1 46 -4 14 -5 29 -2 32 3 2 4 33 4 68 -2 92 -1 130 5
139 2 4 0 10 -6 14 -6 4 -8 10 -5 15 5 8 6 41 5 140 -1 30 -1 60 0 65 4 26 -1
178 -6 186 -3 5 -2 9 3 9 8 0 8 112 0 134 -2 6 -1 20 3 31 4 11 4 31 0 45 -3
14 -4 36 0 50 3 14 3 39 0 55 -4 17 -4 39 0 50 4 10 3 36 0 57 -4 21 -4 40 0
43 4 3 4 22 0 43 -3 21 -4 47 0 58 4 10 4 31 -1 46 -4 14 -5 29 -2 32 3 2 4
33 4 68 -2 92 -1 130 5 139 2 4 0 10 -6 14 -6 4 -8 10 -5 15 5 8 6 41 5 140
-1 30 -1 57 0 60 4 18 4 190 0 190 -4 0 -4 16 -2 35 l4 35 -960 0 -961 0 -3
-22z"/>
</g>
</svg>
